STARTFONT 2.3
FONT -FontForge-Fontdiner Swanky-Book-R-Normal--11-110-72-72-P-70-ISO10646-1
SIZE 11 72 72  2
FONTBOUNDINGBOX 16 17 -3 -6
COMMENT "Generated by fontforge, http://fontforge.sourceforge.net"
COMMENT "Copyright (c) 2010 by Font Diner, Inc. All rights reserved."
STARTPROPERTIES 40
FOUNDRY "FontForge"
FAMILY_NAME "Fontdiner Swanky"
WEIGHT_NAME "Book"
SLANT "R"
SETWIDTH_NAME "Normal"
ADD_STYLE_NAME ""
PIXEL_SIZE 11
POINT_SIZE 110
RESOLUTION_X 72
RESOLUTION_Y 72
SPACING "P"
AVERAGE_WIDTH 70
CHARSET_REGISTRY "ISO10646"
CHARSET_ENCODING "1"
FONTNAME_REGISTRY ""
CHARSET_COLLECTIONS "ISO10646-1"
BITS_PER_PIXEL 2
FONT_NAME "FontdinerSwanky-Regular"
FACE_NAME "Fontdiner Swanky Regular"
COPYRIGHT "Copyright (c) 2010 by Font Diner, Inc. All rights reserved."
FONT_VERSION "1.001"
FONT_ASCENT 9
FONT_DESCENT 2
UNDERLINE_POSITION -1
UNDERLINE_THICKNESS 1
X_HEIGHT 5
CAP_HEIGHT 6
RAW_ASCENT 799
RAW_DESCENT 200
NORM_SPACE 4
RELATIVE_WEIGHT 40
RELATIVE_SETWIDTH 50
SUPERSCRIPT_X 0
SUPERSCRIPT_Y 5
SUPERSCRIPT_SIZE 6
SUBSCRIPT_X 0
SUBSCRIPT_Y 1
SUBSCRIPT_SIZE 6
AVG_LOWERCASE_WIDTH 69
AVG_UPPERCASE_WIDTH 85
ENDPROPERTIES
CHARS 231
STARTCHAR space
ENCODING 32
SWIDTH 320 0
DWIDTH 4 0
BBX 1 1 0 0
BITMAP
00
ENDCHAR
STARTCHAR exclam
ENCODING 33
SWIDTH 305 0
DWIDTH 3 0
BBX 4 10 0 0
BITMAP
14
3D
3C
3C
38
38
74
70
50
B0
ENDCHAR
STARTCHAR quotedbl
ENCODING 34
SWIDTH 369 0
DWIDTH 4 0
BBX 4 4 0 4
BITMAP
55
AB
AA
55
ENDCHAR
STARTCHAR numbersign
ENCODING 35
SWIDTH 702 0
DWIDTH 8 0
BBX 8 8 0 0
BITMAP
0410
1D30
BFFD
6DB4
1C70
FFFD
29A4
1450
ENDCHAR
STARTCHAR dollar
ENCODING 36
SWIDTH 545 0
DWIDTH 6 0
BBX 6 10 0 -2
BITMAP
0D00
1E10
B6D0
B450
7F80
4BE0
A0E0
AF90
0A00
0500
ENDCHAR
STARTCHAR percent
ENCODING 37
SWIDTH 657 0
DWIDTH 7 0
BBX 8 10 0 -1
BITMAP
0010
7CB0
D9E0
79D0
0280
0340
0B68
0D99
1C7C
0400
ENDCHAR
STARTCHAR ampersand
ENCODING 38
SWIDTH 668 0
DWIDTH 7 0
BBX 9 10 0 -1
BITMAP
010000
2A8000
34D000
2D8000
1F0000
2B9400
B2E800
B9FA40
2FB800
005000
ENDCHAR
STARTCHAR quotesingle
ENCODING 39
SWIDTH 177 0
DWIDTH 2 0
BBX 2 4 0 4
BITMAP
50
A0
A0
50
ENDCHAR
STARTCHAR parenleft
ENCODING 40
SWIDTH 384 0
DWIDTH 4 0
BBX 4 11 0 -2
BITMAP
06
2C
38
74
74
74
74
38
2C
0A
01
ENDCHAR
STARTCHAR parenright
ENCODING 41
SWIDTH 375 0
DWIDTH 4 0
BBX 4 11 0 -2
BITMAP
60
28
1D
0E
0E
0E
0E
1D
28
60
40
ENDCHAR
STARTCHAR asterisk
ENCODING 42
SWIDTH 640 0
DWIDTH 7 0
BBX 7 7 0 0
BITMAP
2890
1DE0
5FD4
FFFC
5FC0
2DE0
1440
ENDCHAR
STARTCHAR plus
ENCODING 43
SWIDTH 607 0
DWIDTH 7 0
BBX 7 7 0 0
BITMAP
0640
0B40
AB94
FFF4
0700
0700
0600
ENDCHAR
STARTCHAR comma
ENCODING 44
SWIDTH 226 0
DWIDTH 3 0
BBX 3 3 0 -2
BITMAP
60
B4
20
ENDCHAR
STARTCHAR hyphen
ENCODING 45
SWIDTH 549 0
DWIDTH 6 0
BBX 6 2 0 3
BITMAP
6A90
7FD0
ENDCHAR
STARTCHAR period
ENCODING 46
SWIDTH 226 0
DWIDTH 3 0
BBX 3 2 0 -1
BITMAP
B0
B4
ENDCHAR
STARTCHAR slash
ENCODING 47
SWIDTH 600 0
DWIDTH 7 0
BBX 7 11 0 -1
BITMAP
0010
0078
00F4
02E0
03C0
0B40
1E00
3C00
7400
F000
9000
ENDCHAR
STARTCHAR zero
ENCODING 48
SWIDTH 740 0
DWIDTH 8 0
BBX 8 7 0 0
BITMAP
1BE4
3D6D
B40E
B00F
B40E
396D
0BE4
ENDCHAR
STARTCHAR one
ENCODING 49
SWIDTH 503 0
DWIDTH 6 0
BBX 6 9 0 -1
BITMAP
5B00
6F00
0F00
0F00
0F00
0B00
0B00
1F40
5550
ENDCHAR
STARTCHAR two
ENCODING 50
SWIDTH 638 0
DWIDTH 7 0
BBX 7 9 0 -1
BITMAP
9B90
79B4
6038
1074
06E4
1E08
7824
FFF4
0550
ENDCHAR
STARTCHAR three
ENCODING 51
SWIDTH 620 0
DWIDTH 7 0
BBX 7 9 0 -1
BITMAP
8A80
B9F0
5074
00B0
0BF0
40B4
A0B4
AEE0
4540
ENDCHAR
STARTCHAR four
ENCODING 52
SWIDTH 606 0
DWIDTH 7 0
BBX 7 9 0 -1
BITMAP
0080
02C0
07C0
1FC0
76C4
FBF4
52D4
02C4
1AA0
ENDCHAR
STARTCHAR five
ENCODING 53
SWIDTH 610 0
DWIDTH 7 0
BBX 7 9 0 -1
BITMAP
5AF4
FA70
A010
BFD0
51F4
00B4
A0F0
AFD0
0500
ENDCHAR
STARTCHAR six
ENCODING 54
SWIDTH 619 0
DWIDTH 7 0
BBX 7 10 0 -1
BITMAP
0010
0660
2EF0
7820
BFE0
F474
F038
B038
79B4
1A90
ENDCHAR
STARTCHAR seven
ENCODING 55
SWIDTH 598 0
DWIDTH 7 0
BBX 7 9 0 -1
BITMAP
AAA8
B6B8
60B4
10F0
01E0
02C0
0280
0B80
15A0
ENDCHAR
STARTCHAR eight
ENCODING 56
SWIDTH 642 0
DWIDTH 7 0
BBX 7 9 0 -1
BITMAP
0A90
39B4
7478
7874
3FF0
B87C
F03C
B878
2FE0
ENDCHAR
STARTCHAR nine
ENCODING 57
SWIDTH 610 0
DWIDTH 7 0
BBX 7 9 0 -1
BITMAP
1B80
75B0
F074
F078
B9F8
1BB4
60B0
7FD0
2540
ENDCHAR
STARTCHAR colon
ENCODING 58
SWIDTH 223 0
DWIDTH 2 0
BBX 2 5 0 -1
BITMAP
60
F0
00
A0
B0
ENDCHAR
STARTCHAR semicolon
ENCODING 59
SWIDTH 228 0
DWIDTH 3 0
BBX 3 6 0 -2
BITMAP
60
B4
00
A0
B4
60
ENDCHAR
STARTCHAR less
ENCODING 60
SWIDTH 563 0
DWIDTH 6 0
BBX 7 7 0 0
BITMAP
0074
06F4
2F90
BD00
1E00
02D0
0060
ENDCHAR
STARTCHAR equal
ENCODING 61
SWIDTH 531 0
DWIDTH 6 0
BBX 6 4 0 1
BITMAP
FFE0
AA90
AAA0
BFE0
ENDCHAR
STARTCHAR greater
ENCODING 62
SWIDTH 576 0
DWIDTH 6 0
BBX 7 7 0 0
BITMAP
A000
FD00
1FD0
02F4
0780
2D00
6000
ENDCHAR
STARTCHAR question
ENCODING 63
SWIDTH 592 0
DWIDTH 7 0
BBX 7 10 0 -1
BITMAP
6A40
95E0
4074
0074
1AE0
2E40
2800
5000
B800
1000
ENDCHAR
STARTCHAR at
ENCODING 64
SWIDTH 792 0
DWIDTH 9 0
BBX 9 9 0 -1
BITMAP
015000
1EAD00
76A740
A726C0
D2A9C0
EB35C0
B6B640
2D1A00
015000
ENDCHAR
STARTCHAR A
ENCODING 65
SWIDTH 788 0
DWIDTH 9 0
BBX 11 11 -1 -3
BITMAP
055000
02F400
00B800
00ED00
025E00
07AF40
0A5B80
2C03C0
AA02E4
0003E4
000400
ENDCHAR
STARTCHAR B
ENCODING 66
SWIDTH 774 0
DWIDTH 9 0
BBX 10 10 -1 -2
BITMAP
555000
2FFF40
0F02D0
0B02D0
0BAF40
0B9B40
0B43C0
075B80
1FE900
100000
ENDCHAR
STARTCHAR C
ENCODING 67
SWIDTH 766 0
DWIDTH 8 0
BBX 9 9 0 -1
BITMAP
019140
1FAF00
7C0700
B40100
B40000
B40000
7C0200
1FAE00
01A400
ENDCHAR
STARTCHAR D
ENCODING 68
SWIDTH 833 0
DWIDTH 9 0
BBX 10 9 -1 -1
BITMAP
555400
1BEB80
03C1E0
03C0F0
03C0B0
0380F0
0381D0
0BFF40
150000
ENDCHAR
STARTCHAR E
ENCODING 69
SWIDTH 781 0
DWIDTH 9 0
BBX 9 9 -1 -1
BITMAP
56AAC0
1B95C0
078480
078840
07F800
079840
038480
1BEAC0
155500
ENDCHAR
STARTCHAR F
ENCODING 70
SWIDTH 731 0
DWIDTH 8 0
BBX 8 9 0 -1
BITMAP
56AA
6E5A
1E12
1E61
1FE0
1E90
1D10
1E00
6A80
ENDCHAR
STARTCHAR G
ENCODING 71
SWIDTH 828 0
DWIDTH 9 0
BBX 10 9 0 -1
BITMAP
019600
2FAF00
7C0700
B80100
B46A90
B80B00
7C0B40
1FAE40
015000
ENDCHAR
STARTCHAR H
ENCODING 72
SWIDTH 797 0
DWIDTH 9 0
BBX 10 9 -1 -1
BITMAP
001A90
6A9780
0F0780
0F0780
0FAB80
0F9780
0B0380
0B1BD0
6F9000
ENDCHAR
STARTCHAR I
ENCODING 73
SWIDTH 445 0
DWIDTH 5 0
BBX 7 9 -1 -1
BITMAP
6AA4
0B80
0780
0780
0780
0740
0740
0740
1BE0
ENDCHAR
STARTCHAR J
ENCODING 74
SWIDTH 718 0
DWIDTH 8 0
BBX 10 10 -1 -2
BITMAP
005A90
016E00
001E00
000F00
000F00
000B00
7E0B00
1D0E00
0BB800
015000
ENDCHAR
STARTCHAR K
ENCODING 75
SWIDTH 934 0
DWIDTH 10 0
BBX 12 9 0 -1
BITMAP
BF9554
1E0790
1E2D00
1EF400
1E7800
1E1E00
0D0780
6F92D0
0007F9
ENDCHAR
STARTCHAR L
ENCODING 76
SWIDTH 712 0
DWIDTH 8 0
BBX 9 9 -1 0
BITMAP
6AA400
07C000
078000
078000
078040
038080
038180
039680
1AAA40
ENDCHAR
STARTCHAR M
ENCODING 77
SWIDTH 1033 0
DWIDTH 11 0
BBX 12 9 0 -1
BITMAP
AA00F9
1F42F0
1FC7F0
1EDAF0
1DFDE0
0CB4E0
0C30E0
1E46F9
555000
ENDCHAR
STARTCHAR N
ENCODING 78
SWIDTH 840 0
DWIDTH 9 0
BBX 11 8 -1 0
BITMAP
6A9BF4
07E0C0
07F4C0
067DC0
062FC0
060BC0
0702C0
6FE4C0
ENDCHAR
STARTCHAR O
ENCODING 79
SWIDTH 808 0
DWIDTH 9 0
BBX 9 7 0 0
BITMAP
06A400
3E6E00
B80B40
B40780
B40B80
7C1F00
1BF800
ENDCHAR
STARTCHAR P
ENCODING 80
SWIDTH 746 0
DWIDTH 8 0
BBX 8 8 0 -1
BITMAP
BFE9
1D1B
1D0B
1FE8
1E00
1E00
6F40
5550
ENDCHAR
STARTCHAR Q
ENCODING 81
SWIDTH 789 0
DWIDTH 9 0
BBX 10 10 0 -3
BITMAP
1BF800
3D1E00
B40B40
B40B40
780B00
2D6D00
06F400
007800
007F90
01A400
ENDCHAR
STARTCHAR R
ENCODING 82
SWIDTH 826 0
DWIDTH 9 0
BBX 12 10 0 -3
BITMAP
BFF900
1D0740
1D0B40
1FF800
1E2C00
1E1E00
6F8B40
5553F9
000790
000400
ENDCHAR
STARTCHAR S
ENCODING 83
SWIDTH 661 0
DWIDTH 7 0
BBX 7 9 0 -1
BITMAP
0004
2EE8
B028
BE44
2FF4
01BC
603C
6EB4
4140
ENDCHAR
STARTCHAR T
ENCODING 84
SWIDTH 754 0
DWIDTH 8 0
BBX 8 9 0 -1
BITMAP
5555
7BEA
53C6
43C1
03C0
02C0
02C0
1BE4
0154
ENDCHAR
STARTCHAR U
ENCODING 85
SWIDTH 725 0
DWIDTH 8 0
BBX 8 9 0 -1
BITMAP
0015
B91E
3C09
3C09
3C09
3C09
3D0C
1FB4
0140
ENDCHAR
STARTCHAR V
ENCODING 86
SWIDTH 786 0
DWIDTH 9 0
BBX 11 9 -1 -1
BITMAP
058400
6F02E4
0B4180
078300
03C600
01EC00
00F800
007000
001000
ENDCHAR
STARTCHAR W
ENCODING 87
SWIDTH 1026 0
DWIDTH 11 0
BBX 14 8 -1 -1
BITMAP
6F802A90
0F0A0A00
0B4F0C00
07AF9800
02FBF400
01F1F000
00E0E000
00404000
ENDCHAR
STARTCHAR X
ENCODING 88
SWIDTH 860 0
DWIDTH 9 0
BBX 11 8 -1 -1
BITMAP
169554
07C390
01EA00
00BC00
01FE00
074F40
6F47D0
001554
ENDCHAR
STARTCHAR Y
ENCODING 89
SWIDTH 848 0
DWIDTH 9 0
BBX 11 8 -1 -1
BITMAP
6F8154
0781D0
01E200
00BD00
003800
003800
003C00
01AA40
ENDCHAR
STARTCHAR Z
ENCODING 90
SWIDTH 685 0
DWIDTH 8 0
BBX 8 7 0 0
BITMAP
6AA9
A5BC
51F4
17D1
0F85
2F4D
6AA9
ENDCHAR
STARTCHAR bracketleft
ENCODING 91
SWIDTH 380 0
DWIDTH 4 0
BBX 5 11 0 -2
BITMAP
7E40
7800
7400
7400
7400
7400
3400
3400
3400
3900
1500
ENDCHAR
STARTCHAR backslash
ENCODING 92
SWIDTH 680 0
DWIDTH 7 0
BBX 7 11 0 -1
BITMAP
1000
B400
7C00
2E00
0F40
0780
02D0
00F0
0078
002C
0018
ENDCHAR
STARTCHAR bracketright
ENCODING 93
SWIDTH 371 0
DWIDTH 4 0
BBX 4 11 0 -2
BITMAP
BE
1E
0E
0E
0E
0D
0D
0D
0D
2D
54
ENDCHAR
STARTCHAR asciicircum
ENCODING 94
SWIDTH 671 0
DWIDTH 7 0
BBX 7 7 0 3
BITMAP
0100
0740
0BC0
1EE0
3D74
B81C
A404
ENDCHAR
STARTCHAR underscore
ENCODING 95
SWIDTH 840 0
DWIDTH 9 0
BBX 10 3 0 -2
BITMAP
AAABD0
FFFFD0
000040
ENDCHAR
STARTCHAR grave
ENCODING 96
SWIDTH 707 0
DWIDTH 8 0
BBX 3 3 3 6
BITMAP
70
74
10
ENDCHAR
STARTCHAR a
ENCODING 97
SWIDTH 572 0
DWIDTH 6 0
BBX 6 7 0 -1
BITMAP
2F80
74E0
25E0
7AE0
B5E0
2AE0
0050
ENDCHAR
STARTCHAR b
ENCODING 98
SWIDTH 723 0
DWIDTH 8 0
BBX 9 10 -1 -2
BITMAP
7F4000
0F0000
0B0000
0B0000
0B5400
0BAF40
0B0780
0B0780
0BAE00
295000
ENDCHAR
STARTCHAR c
ENCODING 99
SWIDTH 589 0
DWIDTH 6 0
BBX 7 7 0 -1
BITMAP
0540
2EE0
74B0
B400
B414
3EA0
0640
ENDCHAR
STARTCHAR d
ENCODING 100
SWIDTH 713 0
DWIDTH 8 0
BBX 9 11 0 -2
BITMAP
006500
001E00
001E00
001D00
011D00
2EFD00
742C00
B02C00
782800
1BF800
002940
ENDCHAR
STARTCHAR e
ENCODING 101
SWIDTH 593 0
DWIDTH 7 0
BBX 7 6 0 -1
BITMAP
1FD0
78B0
BAB4
B950
3950
0A40
ENDCHAR
STARTCHAR f
ENCODING 102
SWIDTH 507 0
DWIDTH 6 0
BBX 8 16 -1 -5
BITMAP
0050
02AC
075D
0744
0740
1BA4
1B94
0380
0380
0380
02C0
02C0
12C0
72C0
3B40
0500
ENDCHAR
STARTCHAR g
ENCODING 103
SWIDTH 606 0
DWIDTH 7 0
BBX 7 13 0 -6
BITMAP
0068
06EC
39E0
B074
B074
74B0
2E80
7E50
7AB4
F02C
E02C
79B4
0540
ENDCHAR
STARTCHAR h
ENCODING 104
SWIDTH 678 0
DWIDTH 7 0
BBX 9 11 -1 -1
BITMAP
050000
6F0000
0F0000
0F0000
0B0000
0B5400
0BAE00
0B0B00
0A0B00
1F4B00
001A80
ENDCHAR
STARTCHAR i
ENCODING 105
SWIDTH 393 0
DWIDTH 4 0
BBX 5 9 0 0
BITMAP
1900
2E00
0800
6900
1E00
1D00
1D00
0D00
7F40
ENDCHAR
STARTCHAR j
ENCODING 106
SWIDTH 385 0
DWIDTH 4 0
BBX 5 12 -1 -4
BITMAP
0E00
1E00
0500
1F40
0740
0780
0380
0380
0280
A280
A380
2900
ENDCHAR
STARTCHAR k
ENCODING 107
SWIDTH 749 0
DWIDTH 8 0
BBX 10 10 -1 -1
BITMAP
6A4000
0F4000
0B5F90
0B1D00
0BB400
0BB800
0B1D00
070A00
1F9790
000A50
ENDCHAR
STARTCHAR l
ENCODING 108
SWIDTH 369 0
DWIDTH 4 0
BBX 5 11 -1 -1
BITMAP
5500
1F40
0B00
0B00
0B00
0B00
0B00
0B00
0700
0B00
1A80
ENDCHAR
STARTCHAR m
ENCODING 109
SWIDTH 990 0
DWIDTH 11 0
BBX 12 6 -1 0
BITMAP
6BA9A4
1B9FAD
0B0A0D
070A1D
1A4A2A
001540
ENDCHAR
STARTCHAR n
ENCODING 110
SWIDTH 643 0
DWIDTH 7 0
BBX 9 6 -1 0
BITMAP
6BA800
1B9E00
0B0A00
070A00
1A4A00
001540
ENDCHAR
STARTCHAR o
ENCODING 111
SWIDTH 705 0
DWIDTH 8 0
BBX 8 6 0 0
BITMAP
0140
2EB8
B41D
F01E
B42D
2EE4
ENDCHAR
STARTCHAR p
ENCODING 112
SWIDTH 723 0
DWIDTH 8 0
BBX 9 9 -1 -3
BITMAP
6F5400
0BAE00
0B0380
0B0380
0B5B40
0BA900
070000
0B4000
2A9000
ENDCHAR
STARTCHAR q
ENCODING 113
SWIDTH 682 0
DWIDTH 8 0
BBX 8 10 0 -3
BITMAP
0015
057D
79B8
B038
B038
79B4
0674
0074
00B8
0155
ENDCHAR
STARTCHAR r
ENCODING 114
SWIDTH 595 0
DWIDTH 7 0
BBX 7 7 0 0
BITMAP
0510
BFF8
1E24
1D00
0D00
0E00
7E90
ENDCHAR
STARTCHAR s
ENCODING 115
SWIDTH 533 0
DWIDTH 6 0
BBX 6 7 0 0
BITMAP
1510
7A90
B450
7F40
5BE0
A0E0
AF90
ENDCHAR
STARTCHAR t
ENCODING 116
SWIDTH 422 0
DWIDTH 5 0
BBX 5 11 0 -1
BITMAP
0800
0C00
6C00
BFC0
3800
3800
3800
7400
7440
3F40
0400
ENDCHAR
STARTCHAR u
ENCODING 117
SWIDTH 614 0
DWIDTH 7 0
BBX 8 7 -1 -1
BITMAP
5554
2D2E
1D1D
1D1D
1D1C
0BFD
0005
ENDCHAR
STARTCHAR v
ENCODING 118
SWIDTH 639 0
DWIDTH 7 0
BBX 9 7 -1 -1
BITMAP
6A4000
1E2F40
0B0C00
07A400
02F000
00D000
004000
ENDCHAR
STARTCHAR w
ENCODING 119
SWIDTH 805 0
DWIDTH 9 0
BBX 11 6 -1 0
BITMAP
7E51A4
0E24D0
0B7D80
07EF40
02CA00
014500
ENDCHAR
STARTCHAR x
ENCODING 120
SWIDTH 717 0
DWIDTH 8 0
BBX 10 7 -1 -1
BITMAP
6B9540
079E40
02F400
01F400
076C00
1A5F90
001400
ENDCHAR
STARTCHAR y
ENCODING 121
SWIDTH 655 0
DWIDTH 7 0
BBX 7 11 0 -5
BITMAP
9150
7CBC
7838
B438
7978
1AB8
0038
0078
7074
70B0
1F80
ENDCHAR
STARTCHAR z
ENCODING 122
SWIDTH 549 0
DWIDTH 6 0
BBX 6 6 0 0
BITMAP
6AA0
A6E0
5780
0F10
2D20
7FF0
ENDCHAR
STARTCHAR braceleft
ENCODING 123
SWIDTH 708 0
DWIDTH 8 0
BBX 6 11 1 -2
BITMAP
1F90
1E00
1D00
1D00
1D00
6D00
0D00
0D00
0D00
0E40
0540
ENDCHAR
STARTCHAR bar
ENCODING 124
SWIDTH 304 0
DWIDTH 3 0
BBX 3 11 0 -1
BITMAP
10
78
78
78
78
78
38
34
34
34
24
ENDCHAR
STARTCHAR braceright
ENCODING 125
SWIDTH 517 0
DWIDTH 6 0
BBX 6 11 0 -2
BITMAP
6F40
0B00
0B00
0B00
0B40
0B90
0B00
0700
0700
1F00
1500
ENDCHAR
STARTCHAR asciitilde
ENCODING 126
SWIDTH 466 0
DWIDTH 5 0
BBX 5 3 0 2
BITMAP
5440
FFC0
4640
ENDCHAR
STARTCHAR uni00A0
ENCODING 160
SWIDTH 320 0
DWIDTH 4 0
BBX 1 1 0 0
BITMAP
00
ENDCHAR
STARTCHAR exclamdown
ENCODING 161
SWIDTH 305 0
DWIDTH 3 0
BBX 4 10 0 -4
BITMAP
2D
18
28
38
38
78
78
B4
B4
50
ENDCHAR
STARTCHAR cent
ENCODING 162
SWIDTH 417 0
DWIDTH 5 0
BBX 5 9 0 -1
BITMAP
1D00
1D00
7B40
D240
D000
D040
7A40
1D00
1D00
ENDCHAR
STARTCHAR sterling
ENCODING 163
SWIDTH 658 0
DWIDTH 7 0
BBX 8 9 0 -1
BITMAP
0104
0FEC
2C2C
BE88
AE40
BFD1
5D49
2FFD
1554
ENDCHAR
STARTCHAR currency
ENCODING 164
SWIDTH 358 0
DWIDTH 4 0
BBX 4 4 0 2
BITMAP
95
BA
69
96
ENDCHAR
STARTCHAR yen
ENCODING 165
SWIDTH 796 0
DWIDTH 9 0
BBX 10 7 -1 0
BITMAP
6E0A90
0B4600
02E800
01F400
02F900
01B800
06B900
ENDCHAR
STARTCHAR brokenbar
ENCODING 166
SWIDTH 304 0
DWIDTH 3 0
BBX 3 11 0 -1
BITMAP
10
78
78
78
24
00
10
34
34
34
24
ENDCHAR
STARTCHAR section
ENCODING 167
SWIDTH 646 0
DWIDTH 7 0
BBX 7 13 0 -3
BITMAP
0A40
35A4
7024
7D00
2FD0
76F4
B078
7EB4
1FE0
02F4
6038
7EB4
4540
ENDCHAR
STARTCHAR dieresis
ENCODING 168
SWIDTH 708 0
DWIDTH 8 0
BBX 4 2 2 9
BITMAP
44
99
ENDCHAR
STARTCHAR copyright
ENCODING 169
SWIDTH 700 0
DWIDTH 8 0
BBX 8 8 0 0
BITMAP
0540
2EB4
A69D
D85A
DC0A
A69D
2974
0540
ENDCHAR
STARTCHAR ordfeminine
ENCODING 170
SWIDTH 399 0
DWIDTH 4 0
BBX 5 5 0 4
BITMAP
6800
9A00
AA00
EA00
5A40
ENDCHAR
STARTCHAR guillemotleft
ENCODING 171
SWIDTH 424 0
DWIDTH 5 0
BBX 5 5 0 0
BITMAP
2640
7700
AA00
7700
2540
ENDCHAR
STARTCHAR logicalnot
ENCODING 172
SWIDTH 541 0
DWIDTH 6 0
BBX 6 6 0 0
BITMAP
4010
AAA0
BEE0
4060
0060
0050
ENDCHAR
STARTCHAR sfthyphen
ENCODING 173
SWIDTH 530 0
DWIDTH 6 0
BBX 6 2 0 3
BITMAP
AA90
FFE0
ENDCHAR
STARTCHAR registered
ENCODING 174
SWIDTH 700 0
DWIDTH 8 0
BBX 8 8 0 0
BITMAP
0140
2EB4
A55D
D3AA
D30A
A649
3968
0650
ENDCHAR
STARTCHAR macron
ENCODING 175
SWIDTH 705 0
DWIDTH 8 0
BBX 4 2 2 8
BITMAP
15
7E
ENDCHAR
STARTCHAR degree
ENCODING 176
SWIDTH 364 0
DWIDTH 4 0
BBX 4 3 0 5
BITMAP
28
69
3C
ENDCHAR
STARTCHAR plusminus
ENCODING 177
SWIDTH 607 0
DWIDTH 7 0
BBX 7 7 0 0
BITMAP
0B40
5B50
BFF4
5B40
0700
BAA4
BFA4
ENDCHAR
STARTCHAR twosuperior
ENCODING 178
SWIDTH 440 0
DWIDTH 5 0
BBX 5 6 0 4
BITMAP
5900
6740
5380
1E40
7580
BF40
ENDCHAR
STARTCHAR threesuperior
ENCODING 179
SWIDTH 442 0
DWIDTH 5 0
BBX 5 7 0 3
BITMAP
4400
BB40
5280
1F40
5380
BB40
0400
ENDCHAR
STARTCHAR acute
ENCODING 180
SWIDTH 694 0
DWIDTH 8 0
BBX 2 3 3 8
BITMAP
10
70
50
ENDCHAR
STARTCHAR mu
ENCODING 181
SWIDTH 1000 0
DWIDTH 11 0
BBX 8 9 0 -3
BITMAP
5554
2D2E
1D1D
1D1D
1D1C
1FFD
1D05
1D00
0C00
ENDCHAR
STARTCHAR paragraph
ENCODING 182
SWIDTH 782 0
DWIDTH 9 0
BBX 9 9 0 -1
BITMAP
001540
6FFD00
E2A800
A6A800
1BF800
02A800
02A800
07FE00
155000
ENDCHAR
STARTCHAR periodcentered
ENCODING 183
SWIDTH 226 0
DWIDTH 3 0
BBX 3 2 0 3
BITMAP
B4
60
ENDCHAR
STARTCHAR cedilla
ENCODING 184
SWIDTH 780 0
DWIDTH 9 0
BBX 3 4 3 -2
BITMAP
10
A0
68
B4
ENDCHAR
STARTCHAR onesuperior
ENCODING 185
SWIDTH 390 0
DWIDTH 4 0
BBX 4 6 0 4
BITMAP
04
6D
1D
1D
0C
2D
ENDCHAR
STARTCHAR ordmasculine
ENCODING 186
SWIDTH 449 0
DWIDTH 5 0
BBX 5 5 0 4
BITMAP
1500
A680
D1C0
A780
1500
ENDCHAR
STARTCHAR guillemotright
ENCODING 187
SWIDTH 415 0
DWIDTH 5 0
BBX 5 5 0 0
BITMAP
9900
7700
3740
6700
8900
ENDCHAR
STARTCHAR onequarter
ENCODING 188
SWIDTH 918 0
DWIDTH 10 0
BBX 10 12 0 -2
BITMAP
040140
6D02C0
1D0740
1D0E00
0C2C00
2D3480
00A280
01DB90
03AEE0
071690
0D06D0
040000
ENDCHAR
STARTCHAR onehalf
ENCODING 189
SWIDTH 1007 0
DWIDTH 11 0
BBX 11 12 0 -2
BITMAP
040140
6D02C0
1D0740
1D0E00
0C2C00
2D3400
00A6F4
01D22C
038178
0702D8
0D07A8
040554
ENDCHAR
STARTCHAR threequarters
ENCODING 190
SWIDTH 936 0
DWIDTH 10 0
BBX 10 12 0 -2
BITMAP
440040
BB42C0
528340
1F4B00
539D00
BB7880
0472C0
00D7D0
029EE0
0715E0
0906D0
040000
ENDCHAR
STARTCHAR questiondown
ENCODING 191
SWIDTH 568 0
DWIDTH 6 0
BBX 6 10 0 -3
BITMAP
0040
01F0
0050
01C0
17C0
BA80
E000
E000
7960
1AA0
ENDCHAR
STARTCHAR Agrave
ENCODING 192
SWIDTH 788 0
DWIDTH 9 0
BBX 11 14 -1 -3
BITMAP
009000
00A000
001000
055000
02F400
00B800
00ED00
025E00
07AF40
0A5B80
2C03C0
AA02E4
0003E4
000400
ENDCHAR
STARTCHAR Aacute
ENCODING 193
SWIDTH 788 0
DWIDTH 9 0
BBX 11 14 -1 -3
BITMAP
002000
003400
006000
055000
02F400
00B800
00ED00
025E00
07AF40
0A5B80
2C03C0
AA02E4
0003E4
000400
ENDCHAR
STARTCHAR Acircumflex
ENCODING 194
SWIDTH 788 0
DWIDTH 9 0
BBX 11 13 -1 -3
BITMAP
007000
00E800
055400
02F400
00B800
00ED00
025E00
07AF40
0A5B80
2C03C0
AA02E4
0003E4
000400
ENDCHAR
STARTCHAR Atilde
ENCODING 195
SWIDTH 788 0
DWIDTH 9 0
BBX 11 13 -1 -3
BITMAP
009400
01BC00
055000
02F400
00B800
00ED00
025E00
07AF40
0A5B80
2C03C0
AA02E4
0003E4
000400
ENDCHAR
STARTCHAR Adieresis
ENCODING 196
SWIDTH 788 0
DWIDTH 9 0
BBX 11 13 -1 -3
BITMAP
004400
019800
055000
02F400
00B800
00ED00
025E00
07AF40
0A5B80
2C03C0
AA02E4
0003E4
000400
ENDCHAR
STARTCHAR Aring
ENCODING 197
SWIDTH 788 0
DWIDTH 9 0
BBX 11 13 -1 -3
BITMAP
001000
00A400
05B400
02F400
00B800
00ED00
025E00
07AF00
0A5B80
2C03C0
AA02E4
0003E4
000400
ENDCHAR
STARTCHAR AE
ENCODING 198
SWIDTH 1019 0
DWIDTH 11 0
BBX 14 9 -3 -1
BITMAP
006AABE0
002FE460
001EE120
0025E610
0061FE00
00FBE910
0295E150
1B06FAD0
5A955540
ENDCHAR
STARTCHAR Ccedilla
ENCODING 199
SWIDTH 766 0
DWIDTH 8 0
BBX 9 12 0 -4
BITMAP
019140
1FAF00
7C0700
B40100
B40000
B40000
7C0200
1FAE00
02A400
028000
019000
028000
ENDCHAR
STARTCHAR Egrave
ENCODING 200
SWIDTH 781 0
DWIDTH 9 0
BBX 9 12 -1 -1
BITMAP
00A000
007000
001000
56AAC0
1B95C0
078480
078840
07F800
079840
038480
1BEAC0
155500
ENDCHAR
STARTCHAR Eacute
ENCODING 201
SWIDTH 781 0
DWIDTH 9 0
BBX 9 12 -1 -1
BITMAP
001400
003800
002000
56AAC0
1B95C0
078480
078840
07F800
079840
038480
1BEAC0
155500
ENDCHAR
STARTCHAR Ecircumflex
ENCODING 202
SWIDTH 781 0
DWIDTH 9 0
BBX 9 12 -1 -1
BITMAP
00A000
01E800
010400
56AAC0
1B95C0
078480
078840
07F800
079840
038480
1BEAC0
155500
ENDCHAR
STARTCHAR Edieresis
ENCODING 203
SWIDTH 781 0
DWIDTH 9 0
BBX 9 11 -1 -1
BITMAP
004400
019800
56AAC0
1B95C0
078480
078840
07F800
079840
038480
1BEAC0
155500
ENDCHAR
STARTCHAR Igrave
ENCODING 204
SWIDTH 445 0
DWIDTH 5 0
BBX 7 12 -1 -1
BITMAP
0A00
0700
0100
6AA4
0B80
0780
0780
0780
0740
0740
0740
1BE0
ENDCHAR
STARTCHAR Iacute
ENCODING 205
SWIDTH 445 0
DWIDTH 5 0
BBX 7 12 -1 -1
BITMAP
0140
0280
0240
6AA4
0B80
0780
0780
0780
0740
0740
0740
1BE0
ENDCHAR
STARTCHAR Icircumflex
ENCODING 206
SWIDTH 445 0
DWIDTH 5 0
BBX 7 12 -1 -1
BITMAP
0340
0AC0
0400
6AA4
0B80
0780
0780
0780
0740
0740
0740
1BE0
ENDCHAR
STARTCHAR Idieresis
ENCODING 207
SWIDTH 445 0
DWIDTH 5 0
BBX 7 11 -1 -1
BITMAP
0440
09C0
6AA4
0B80
0780
0780
0780
0740
0740
0740
1BE0
ENDCHAR
STARTCHAR Eth
ENCODING 208
SWIDTH 1000 0
DWIDTH 11 0
BBX 11 9 0 -1
BITMAP
555400
1BEB90
03D0F0
02D074
3FFC78
16D0B4
02C0F0
07FF80
154000
ENDCHAR
STARTCHAR Ntilde
ENCODING 209
SWIDTH 840 0
DWIDTH 9 0
BBX 11 11 -1 0
BITMAP
009500
00BD00
000000
6A9BF4
07E0C0
07F4C0
067DC0
062FC0
060BC0
0702C0
6FE4C0
ENDCHAR
STARTCHAR Ograve
ENCODING 210
SWIDTH 808 0
DWIDTH 9 0
BBX 9 10 0 0
BITMAP
01C000
00D000
005000
06A400
3E6E00
B80B40
B40780
B40B80
7C1F00
1BF800
ENDCHAR
STARTCHAR Oacute
ENCODING 211
SWIDTH 808 0
DWIDTH 9 0
BBX 9 10 0 0
BITMAP
005000
00A000
008000
06A400
3E6E00
B80B40
B40780
B40B80
7C1F00
1BF800
ENDCHAR
STARTCHAR Ocircumflex
ENCODING 212
SWIDTH 808 0
DWIDTH 9 0
BBX 9 10 0 0
BITMAP
01D000
03B000
011000
06A400
3E6E00
B80B40
B40780
B40B80
7C1F00
1BF800
ENDCHAR
STARTCHAR Otilde
ENCODING 213
SWIDTH 808 0
DWIDTH 9 0
BBX 9 10 0 0
BITMAP
025400
02F400
000000
06A400
3E6E00
B80B40
B40780
B40B80
7C1F00
1BF800
ENDCHAR
STARTCHAR Odieresis
ENCODING 214
SWIDTH 808 0
DWIDTH 9 0
BBX 9 10 0 0
BITMAP
011000
036000
000000
06A400
3E6E00
B80B40
B40780
B40B80
7C1F00
1BF800
ENDCHAR
STARTCHAR multiply
ENCODING 215
SWIDTH 556 0
DWIDTH 6 0
BBX 6 6 0 1
BITMAP
1040
B9E0
2FD0
1F80
7ED0
60A0
ENDCHAR
STARTCHAR Oslash
ENCODING 216
SWIDTH 808 0
DWIDTH 9 0
BBX 9 9 0 -1
BITMAP
000900
06AD00
3E7E00
B8BB40
B5D780
B68B80
7F5F00
1FF800
1C0000
ENDCHAR
STARTCHAR Ugrave
ENCODING 217
SWIDTH 725 0
DWIDTH 8 0
BBX 8 11 0 -1
BITMAP
0280
02C0
0055
B91E
3C09
3C09
3C09
3C09
3D0C
1FB4
0140
ENDCHAR
STARTCHAR Uacute
ENCODING 218
SWIDTH 725 0
DWIDTH 8 0
BBX 8 12 0 -1
BITMAP
0080
01C0
0140
0015
B91E
3C09
3C09
3C09
3C09
3D0C
1FB4
0140
ENDCHAR
STARTCHAR Ucircumflex
ENCODING 219
SWIDTH 725 0
DWIDTH 8 0
BBX 8 11 0 -1
BITMAP
0280
07A0
0425
B91E
3C09
3C09
3C09
3C09
3D0C
1FB4
0140
ENDCHAR
STARTCHAR Udieresis
ENCODING 220
SWIDTH 725 0
DWIDTH 8 0
BBX 8 11 0 -1
BITMAP
0110
0660
0015
B91E
3C09
3C09
3C09
3C09
3D0C
1FB4
0140
ENDCHAR
STARTCHAR Yacute
ENCODING 221
SWIDTH 848 0
DWIDTH 9 0
BBX 11 12 -1 -1
BITMAP
000500
000D00
001800
000000
6F8154
0781D0
01E200
00BD00
003800
003800
003C00
01AA40
ENDCHAR
STARTCHAR Thorn
ENCODING 222
SWIDTH 745 0
DWIDTH 8 0
BBX 9 8 0 -1
BITMAP
BF4000
1E9400
1E6E00
1D0740
1EAD00
1E4000
6F4000
555000
ENDCHAR
STARTCHAR germandbls
ENCODING 223
SWIDTH 986 0
DWIDTH 11 0
BBX 12 15 -1 -5
BITMAP
00FE00
028280
0741C0
0742C0
1B4380
1B4B00
038A00
038B80
0282F8
02C46F
02CB5E
12C9A4
72C000
3B4000
050000
ENDCHAR
STARTCHAR agrave
ENCODING 224
SWIDTH 572 0
DWIDTH 6 0
BBX 6 10 0 -1
BITMAP
0280
02C0
0040
2F80
74E0
25E0
7AE0
B5E0
2AE0
0050
ENDCHAR
STARTCHAR aacute
ENCODING 225
SWIDTH 572 0
DWIDTH 6 0
BBX 6 11 0 -1
BITMAP
0140
0280
0240
0000
2F80
74E0
25E0
7AE0
B5E0
2AE0
0050
ENDCHAR
STARTCHAR acircumflex
ENCODING 226
SWIDTH 572 0
DWIDTH 6 0
BBX 6 10 0 -1
BITMAP
0340
0AC0
0400
2F80
74E0
25E0
7AE0
B5E0
2AE0
0050
ENDCHAR
STARTCHAR atilde
ENCODING 227
SWIDTH 572 0
DWIDTH 6 0
BBX 6 10 0 -1
BITMAP
0550
0BD0
0000
2F80
74E0
25E0
7AE0
B5E0
2AE0
0050
ENDCHAR
STARTCHAR adieresis
ENCODING 228
SWIDTH 572 0
DWIDTH 6 0
BBX 6 10 0 -1
BITMAP
0440
0980
0000
2F80
74E0
25E0
7AE0
B5E0
2AE0
0050
ENDCHAR
STARTCHAR aring
ENCODING 229
SWIDTH 572 0
DWIDTH 6 0
BBX 6 9 0 -1
BITMAP
0680
0680
2FC0
74E0
25E0
7AE0
B5E0
2AE0
0050
ENDCHAR
STARTCHAR ae
ENCODING 230
SWIDTH 1022 0
DWIDTH 11 0
BBX 11 7 0 -1
BITMAP
2B8690
B0ED78
65FD6C
BAFD54
F1EE64
6BE550
004000
ENDCHAR
STARTCHAR ccedilla
ENCODING 231
SWIDTH 589 0
DWIDTH 6 0
BBX 7 10 0 -4
BITMAP
0540
2EE0
74B0
B400
B414
3EA0
0B80
0B40
0580
0640
ENDCHAR
STARTCHAR egrave
ENCODING 232
SWIDTH 593 0
DWIDTH 7 0
BBX 7 9 0 -1
BITMAP
0240
0280
0140
1FD0
78B0
BAB4
B950
3950
0A40
ENDCHAR
STARTCHAR eacute
ENCODING 233
SWIDTH 593 0
DWIDTH 7 0
BBX 7 10 0 -1
BITMAP
0140
0280
0200
0000
1FD0
78B0
BAB4
B950
3950
0A40
ENDCHAR
STARTCHAR ecircumflex
ENCODING 234
SWIDTH 593 0
DWIDTH 7 0
BBX 7 9 0 -1
BITMAP
0340
0AC0
0400
1FD0
78B0
BAB4
B950
3950
0A40
ENDCHAR
STARTCHAR edieresis
ENCODING 235
SWIDTH 593 0
DWIDTH 7 0
BBX 7 9 0 -1
BITMAP
0440
0990
0000
1FD0
78B0
BAB4
B950
3950
0A40
ENDCHAR
STARTCHAR igrave
ENCODING 236
SWIDTH 393 0
DWIDTH 4 0
BBX 5 9 0 0
BITMAP
2800
1C00
0400
6900
1E00
1D00
1D00
0D00
7F40
ENDCHAR
STARTCHAR iacute
ENCODING 237
SWIDTH 393 0
DWIDTH 4 0
BBX 5 10 0 0
BITMAP
0500
0A00
0800
0000
6900
1E00
1D00
1D00
0D00
7F40
ENDCHAR
STARTCHAR icircumflex
ENCODING 238
SWIDTH 393 0
DWIDTH 4 0
BBX 5 9 0 0
BITMAP
1D00
3B00
1100
6900
1E00
1D00
1D00
0D00
7F40
ENDCHAR
STARTCHAR idieresis
ENCODING 239
SWIDTH 393 0
DWIDTH 4 0
BBX 5 9 0 0
BITMAP
1100
2640
0000
6900
1E00
1D00
1D00
0D00
7F40
ENDCHAR
STARTCHAR eth
ENCODING 240
SWIDTH 672 0
DWIDTH 7 0
BBX 8 10 0 -1
BITMAP
0414
02B4
07D0
0D74
0178
6EBD
F02D
E01D
B02C
2FE0
ENDCHAR
STARTCHAR ntilde
ENCODING 241
SWIDTH 643 0
DWIDTH 7 0
BBX 9 9 -1 0
BITMAP
019400
02B800
000000
6BA800
1B9E00
0B0A00
070A00
1A4A00
001540
ENDCHAR
STARTCHAR ograve
ENCODING 242
SWIDTH 705 0
DWIDTH 8 0
BBX 8 9 0 0
BITMAP
0280
01C0
0040
0140
2EB8
B41D
F01E
B42D
2EE4
ENDCHAR
STARTCHAR oacute
ENCODING 243
SWIDTH 705 0
DWIDTH 8 0
BBX 8 9 0 0
BITMAP
0040
01C0
0140
0140
2EB8
B41D
F01E
B42D
2EE4
ENDCHAR
STARTCHAR ocircumflex
ENCODING 244
SWIDTH 705 0
DWIDTH 8 0
BBX 8 8 0 0
BITMAP
0280
07E0
0550
2EB8
B41D
F01E
B42D
2EE4
ENDCHAR
STARTCHAR otilde
ENCODING 245
SWIDTH 705 0
DWIDTH 8 0
BBX 8 8 0 0
BITMAP
0650
0AE0
0140
2EB8
B41D
F01E
B42D
2EE4
ENDCHAR
STARTCHAR odieresis
ENCODING 246
SWIDTH 705 0
DWIDTH 8 0
BBX 8 8 0 0
BITMAP
0110
0660
0140
2EB8
B41D
F01E
B42D
2EE4
ENDCHAR
STARTCHAR divide
ENCODING 247
SWIDTH 504 0
DWIDTH 6 0
BBX 6 6 0 0
BITMAP
0F00
0500
FE90
AA90
0900
1E00
ENDCHAR
STARTCHAR oslash
ENCODING 248
SWIDTH 705 0
DWIDTH 8 0
BBX 8 8 0 -1
BITMAP
0010
0178
2EF8
B5ED
F39E
BB2D
2FE4
2C00
ENDCHAR
STARTCHAR ugrave
ENCODING 249
SWIDTH 614 0
DWIDTH 7 0
BBX 8 10 -1 -1
BITMAP
0280
01C0
0040
5554
2D2E
1D1D
1D1D
1D1C
0BFD
0005
ENDCHAR
STARTCHAR uacute
ENCODING 250
SWIDTH 614 0
DWIDTH 7 0
BBX 8 10 -1 -1
BITMAP
0050
00E0
0080
5554
2D2E
1D1D
1D1D
1D1C
0BFD
0005
ENDCHAR
STARTCHAR ucircumflex
ENCODING 251
SWIDTH 614 0
DWIDTH 7 0
BBX 8 10 -1 -1
BITMAP
01D0
03B0
0110
5554
2D2E
1D1D
1D1D
1D1C
0BFD
0005
ENDCHAR
STARTCHAR udieresis
ENCODING 252
SWIDTH 614 0
DWIDTH 7 0
BBX 8 9 -1 -1
BITMAP
0110
0260
5554
2D2E
1D1D
1D1D
1D1C
0BFD
0005
ENDCHAR
STARTCHAR yacute
ENCODING 253
SWIDTH 655 0
DWIDTH 7 0
BBX 7 14 0 -5
BITMAP
0140
0380
0200
9150
7CBC
7838
B438
7978
1AB8
0038
0078
7074
70B0
1F80
ENDCHAR
STARTCHAR thorn
ENCODING 254
SWIDTH 734 0
DWIDTH 8 0
BBX 9 13 -1 -5
BITMAP
6A4000
0B4000
074000
074000
07A900
079B80
0742C0
0742C0
07AB80
079500
074000
078000
155000
ENDCHAR
STARTCHAR ydieresis
ENCODING 255
SWIDTH 655 0
DWIDTH 7 0
BBX 7 14 0 -5
BITMAP
0440
0980
0000
9150
7CBC
7838
B438
7978
1AB8
0038
0078
7074
70B0
1F80
ENDCHAR
STARTCHAR dotlessi
ENCODING 305
SWIDTH 393 0
DWIDTH 4 0
BBX 5 6 0 0
BITMAP
6900
1E00
1D00
1D00
0D00
7F40
ENDCHAR
STARTCHAR Lslash
ENCODING 321
SWIDTH 713 0
DWIDTH 8 0
BBX 9 9 -1 0
BITMAP
6AA400
07C000
078000
07F400
1BD040
2B8080
038180
039680
1AAA40
ENDCHAR
STARTCHAR lslash
ENCODING 322
SWIDTH 365 0
DWIDTH 4 0
BBX 6 11 -1 -1
BITMAP
5500
1F00
0B00
0B40
0BD0
7F40
2B00
0B00
0B00
0B00
1A80
ENDCHAR
STARTCHAR OE
ENCODING 338
SWIDTH 1195 0
DWIDTH 13 0
BBX 13 9 0 -1
BITMAP
0056AB80
001B9180
2EEB8480
B43F9440
F02FF400
B02FA440
39BB4540
065BAB40
00555500
ENDCHAR
STARTCHAR oe
ENCODING 339
SWIDTH 1087 0
DWIDTH 12 0
BBX 12 6 0 -1
BITMAP
2FE6A4
B47E6D
E02E5E
B03E95
2EEF54
0001A0
ENDCHAR
STARTCHAR Scaron
ENCODING 352
SWIDTH 661 0
DWIDTH 7 0
BBX 7 12 0 -1
BITMAP
0D90
0780
0100
0004
2EE8
B028
BE44
2FF4
01BC
603C
6EB4
4140
ENDCHAR
STARTCHAR scaron
ENCODING 353
SWIDTH 533 0
DWIDTH 6 0
BBX 6 10 0 0
BITMAP
1A80
0B00
0100
1510
7A90
B450
7F40
5BE0
A0E0
AF90
ENDCHAR
STARTCHAR Ydieresis
ENCODING 376
SWIDTH 848 0
DWIDTH 9 0
BBX 11 11 -1 -1
BITMAP
000400
006900
000000
6F8154
0781D0
01E200
00BD00
003800
003800
003C00
01AA40
ENDCHAR
STARTCHAR Zcaron
ENCODING 381
SWIDTH 685 0
DWIDTH 8 0
BBX 8 10 0 0
BITMAP
0AA0
02C0
0000
6AA9
A5BC
51F4
17D1
0F85
2F4D
6AA9
ENDCHAR
STARTCHAR zcaron
ENCODING 382
SWIDTH 549 0
DWIDTH 6 0
BBX 6 9 0 0
BITMAP
19C0
0B40
0100
6AA0
A6E0
5780
0F10
2D20
7FF0
ENDCHAR
STARTCHAR circumflex
ENCODING 710
SWIDTH 714 0
DWIDTH 8 0
BBX 4 3 2 7
BITMAP
1C
3A
41
ENDCHAR
STARTCHAR caron
ENCODING 711
SWIDTH 714 0
DWIDTH 8 0
BBX 4 3 2 7
BITMAP
67
2D
04
ENDCHAR
STARTCHAR breve
ENCODING 728
SWIDTH 715 0
DWIDTH 8 0
BBX 4 2 2 8
BITMAP
7A
19
ENDCHAR
STARTCHAR dotaccent
ENCODING 729
SWIDTH 708 0
DWIDTH 8 0
BBX 2 2 3 9
BITMAP
40
90
ENDCHAR
STARTCHAR ring
ENCODING 730
SWIDTH 704 0
DWIDTH 8 0
BBX 3 2 3 8
BITMAP
A4
A4
ENDCHAR
STARTCHAR ogonek
ENCODING 731
SWIDTH 988 0
DWIDTH 11 0
BBX 5 4 3 -2
BITMAP
1000
6000
7A40
1400
ENDCHAR
STARTCHAR tilde
ENCODING 732
SWIDTH 707 0
DWIDTH 8 0
BBX 4 2 2 8
BITMAP
25
6F
ENDCHAR
STARTCHAR hungarumlaut
ENCODING 733
SWIDTH 671 0
DWIDTH 7 0
BBX 4 3 2 8
BITMAP
15
BA
99
ENDCHAR
STARTCHAR endash
ENCODING 8211
SWIDTH 576 0
DWIDTH 6 0
BBX 6 2 0 3
BITMAP
7FE0
6A90
ENDCHAR
STARTCHAR emdash
ENCODING 8212
SWIDTH 993 0
DWIDTH 11 0
BBX 11 2 0 3
BITMAP
6AAAA4
6AAAA4
ENDCHAR
STARTCHAR quoteleft
ENCODING 8216
SWIDTH 261 0
DWIDTH 3 0
BBX 3 3 0 5
BITMAP
24
74
B0
ENDCHAR
STARTCHAR quoteright
ENCODING 8217
SWIDTH 301 0
DWIDTH 3 0
BBX 3 3 0 5
BITMAP
24
78
B0
ENDCHAR
STARTCHAR quotesinglbase
ENCODING 8218
SWIDTH 332 0
DWIDTH 4 0
BBX 3 4 0 -1
BITMAP
10
38
74
60
ENDCHAR
STARTCHAR quotedblleft
ENCODING 8220
SWIDTH 477 0
DWIDTH 5 0
BBX 5 3 0 5
BITMAP
2580
7BC0
B740
ENDCHAR
STARTCHAR quotedblright
ENCODING 8221
SWIDTH 477 0
DWIDTH 5 0
BBX 5 4 0 4
BITMAP
2640
7780
A740
0100
ENDCHAR
STARTCHAR quotedblbase
ENCODING 8222
SWIDTH 477 0
DWIDTH 5 0
BBX 5 4 0 -1
BITMAP
1100
7BC0
B740
5600
ENDCHAR
STARTCHAR dagger
ENCODING 8224
SWIDTH 487 0
DWIDTH 5 0
BBX 5 13 0 -4
BITMAP
0E00
0E00
6E40
BFC0
0E00
0E00
0E00
0E00
0E00
0D00
0D00
0D00
0400
ENDCHAR
STARTCHAR daggerdbl
ENCODING 8225
SWIDTH 497 0
DWIDTH 5 0
BBX 5 13 0 -4
BITMAP
0E00
0E00
6E40
BFC0
0E00
AFC0
6F80
0E00
0E00
0D00
0D00
0D00
0400
ENDCHAR
STARTCHAR bullet
ENCODING 8226
SWIDTH 275 0
DWIDTH 3 0
BBX 3 4 0 2
BITMAP
64
FC
B8
10
ENDCHAR
STARTCHAR ellipsis
ENCODING 8230
SWIDTH 787 0
DWIDTH 9 0
BBX 9 2 0 -1
BITMAP
B1D740
B6D740
ENDCHAR
STARTCHAR perthousand
ENCODING 8240
SWIDTH 888 0
DWIDTH 10 0
BBX 10 10 0 -1
BITMAP
005000
B8B000
DDE000
79C000
038000
074000
0A69A0
0DDF70
1CBEE0
140000
ENDCHAR
STARTCHAR guilsinglleft
ENCODING 8249
SWIDTH 234 0
DWIDTH 3 0
BBX 3 5 0 0
BITMAP
24
70
A0
70
24
ENDCHAR
STARTCHAR guilsinglright
ENCODING 8250
SWIDTH 223 0
DWIDTH 2 0
BBX 3 5 0 0
BITMAP
90
70
34
60
80
ENDCHAR
STARTCHAR fraction
ENCODING 8260
SWIDTH 600 0
DWIDTH 7 0
BBX 7 10 0 -1
BITMAP
0034
00B8
01F0
02D0
0780
0F00
2D00
7800
B400
E000
ENDCHAR
STARTCHAR Euro
ENCODING 8364
SWIDTH 590 0
DWIDTH 7 0
BBX 8 7 -1 0
BITMAP
02F8
0A1D
6F94
2E50
1F91
07E8
0150
ENDCHAR
STARTCHAR trademark
ENCODING 8482
SWIDTH 624 0
DWIDTH 7 0
BBX 7 5 0 3
BITMAP
1000
A000
96A4
9648
6154
ENDCHAR
STARTCHAR minus
ENCODING 8722
SWIDTH 549 0
DWIDTH 6 0
BBX 6 2 0 3
BITMAP
AA90
FFF0
ENDCHAR
STARTCHAR fi
ENCODING 64257
SWIDTH 757 0
DWIDTH 8 0
BBX 10 16 -1 -5
BITMAP
006400
029F00
074740
074B80
074100
1BAA40
1B9B80
038740
038740
038340
02DBD0
02C000
12C000
72C000
3B4000
050000
ENDCHAR
STARTCHAR fl
ENCODING 64258
SWIDTH 776 0
DWIDTH 9 0
BBX 10 16 -1 -5
BITMAP
006400
029E00
074740
074780
074380
1BA780
1B9380
038380
038380
038340
02C380
02DA90
12C000
72C000
3B4000
050000
ENDCHAR
STARTCHAR .notdef
ENCODING -1
SWIDTH 320 0
DWIDTH 4 0
BBX 1 1 0 0
BITMAP
00
ENDCHAR
ENDFONT
